<?xml version="1.0" encoding="UTF-8"?>
<svg version="1.1" xmlns="http://www.w3.org/2000/svg" width="512" height="512" viewBox="0 0 50 50">
<path d="M0 0 C40.59 0 81.18 0 123 0 C128.94 9.9 128.94 9.9 135 20 C137.46577512 23.98910833 139.93737241 27.97040257 142.4375 31.9375 C143.71783436 33.97762211 144.99777509 36.01799131 146.27734375 38.05859375 C146.90237793 39.05487793 147.52741211 40.05116211 148.17138672 41.07763672 C150.96446678 45.54134411 153.73307277 50.02005064 156.5 54.5 C161.0792303 61.91158465 165.68818082 69.30397167 170.3125 76.6875 C176.26318836 86.19138864 182.15150549 95.73229223 188.01879883 105.2878418 C193.08709306 113.53496427 198.208198 121.74780885 203.34887695 129.94995117 C208.00076575 137.38038241 212.60177706 144.84108448 217.1875 152.3125 C221.7457377 159.73815683 226.3289587 167.14474569 231 174.5 C236.37297853 182.96055964 241.62451084 191.49338078 246.8671875 200.03515625 C251.37750651 207.37833217 255.92338863 214.69797726 260.5 222 C265.77200627 230.41153127 270.99463848 238.85188721 276.1875 247.3125 C280.74574404 254.73816715 285.32948761 262.14440277 290 269.5 C294.5525814 276.67922327 299.0626269 283.88437921 303.53466797 291.11401367 C304.25463221 292.27682202 304.97596045 293.43878708 305.69873047 294.59985352 C306.71188663 296.22822455 307.71932676 297.86014774 308.7265625 299.4921875 C309.31002441 300.43433105 309.89348633 301.37647461 310.49462891 302.34716797 C313.29448494 307.28119905 313.29448494 307.28119905 314 310 C313.10742187 312.33886719 313.10742187 312.33886719 311.46875 314.796875 C310.85410889 315.73821289 310.23946777 316.67955078 309.60620117 317.64941406 C308.91115479 318.67260742 308.2161084 319.69580078 307.5 320.75 C306.42359253 322.38146973 306.42359253 322.38146973 305.32543945 324.04589844 C303.33059412 327.06821098 301.312855 330.07460252 299.29058838 333.07861328 C297.08153396 336.36738288 294.89143772 339.6687451 292.69921875 342.96875 C289.93705235 347.12519373 287.17076618 351.27866178 284.38696289 355.4206543 C279.69084095 362.41374195 275.05797703 369.43667567 270.546875 376.55078125 C269.67715056 377.91328474 268.80712089 379.27559345 267.93676758 380.63769531 C266.69343815 382.58352582 265.45644896 384.53196515 264.23886108 386.49401855 C263.1314603 388.27830807 262.00378362 390.04810218 260.87109375 391.81640625 C260.24130615 392.82131104 259.61151855 393.82621582 258.96264648 394.86157227 C257 397 257 397 254.55784607 397.3649292 C252 397 252 397 250.43936157 395.46855164 C250.00127167 394.75278458 249.56318176 394.03701752 249.11181641 393.29956055 C248.60661469 392.49629837 248.10141296 391.69303619 247.5809021 390.86543274 C247.05147003 389.98558212 246.52203796 389.10573151 245.9765625 388.19921875 C244.81884975 386.34633241 243.66030081 384.49396831 242.50097656 382.64208984 C241.91658813 381.69622009 241.33219971 380.75035034 240.73010254 379.77581787 C238.15263697 375.6404705 235.46629193 371.58029076 232.7734375 367.51953125 C231.72553934 365.92993275 230.67801875 364.34008528 229.63085938 362.75 C228.54557801 361.1041633 227.46029141 359.45833007 226.375 357.8125 C225.20371001 356.03519977 224.03248774 354.2578549 222.86132812 352.48046875 C220.44133946 348.80793487 218.02106714 345.13558818 215.60058594 341.46337891 C210.45583874 333.65758543 205.31468042 325.84942899 200.17340088 318.04135132 C197.36576183 313.77746136 194.55786745 309.51373955 191.75 305.25 C190.62499879 303.54166746 189.49999879 301.83333413 188.375 300.125 C187.818125 299.279375 187.26125 298.43375 186.6875 297.5625 C181.62499997 289.87499995 181.62499997 289.87499995 179.93762207 287.31268311 C178.81221794 285.6037376 177.68681104 283.89479391 176.56140137 282.18585205 C173.75506191 277.92439992 170.94877005 273.66291647 168.14257812 269.40136719 C163.00738565 261.60304695 157.87180924 253.80498071 152.73449707 246.00805664 C150.38571799 242.44323839 148.03721141 238.87824066 145.6887207 235.31323242 C144.60145193 233.66291655 143.51405939 232.01268221 142.42651367 230.36254883 C132.25421049 214.9279819 122.13043857 199.46224835 112 184 C111.67 292.24 111.34 400.48 111 512 C74.37 512 37.74 512 0 512 C0 343.04 0 174.08 0 0 Z " fill="#000000" transform="translate(0,0)"/>
<path d="M0 0 C40.59 0 81.18 0 123 0 C123 168.96 123 337.92 123 512 C86.04 512 49.08 512 11 512 C10.67 402.77 10.34 293.54 10 181 C4.72 189.25 -0.56 197.5 -6 206 C-9.39444207 211.15548467 -12.78716673 216.30779963 -16.22192383 221.43579102 C-17.599304 223.49245466 -18.97271714 225.55172895 -20.34570312 227.61132812 C-22.50073142 230.84064053 -24.66547146 234.06319701 -26.83917236 237.27996826 C-27.94230355 238.91450952 -29.03943552 240.55309486 -30.13623047 242.19189453 C-30.76029785 243.1095459 -31.38436523 244.02719727 -32.02734375 244.97265625 C-32.559646 245.760354 -33.09194824 246.54805176 -33.64038086 247.35961914 C-34.08905518 247.90094482 -34.53772949 248.44227051 -35 249 C-35.66 249 -36.32 249 -37 249 C-38.35009766 247.20947266 -38.35009766 247.20947266 -39.9140625 244.6640625 C-40.501875 243.7153125 -41.0896875 242.7665625 -41.6953125 241.7890625 C-42.33210938 240.74492187 -42.96890625 239.70078125 -43.625 238.625 C-44.29015625 237.54734375 -44.9553125 236.4696875 -45.640625 235.359375 C-47.41266874 232.48561118 -49.17847981 229.6082147 -50.94104004 226.7286377 C-52.63090725 223.9701121 -54.32738918 221.21566567 -56.0234375 218.4609375 C-58.01919588 215.21887138 -60.01443826 211.97649876 -62.00732422 208.73266602 C-66.55995548 201.32481658 -71.14231268 193.93622184 -75.75 186.5625 C-76.66652344 185.09151855 -76.66652344 185.09151855 -77.6015625 183.59082031 C-80.57044721 178.83646363 -83.57016988 174.10746656 -86.640625 169.41796875 C-87.20813477 168.54390381 -87.77564453 167.66983887 -88.36035156 166.76928711 C-89.42453538 165.1341899 -90.49885882 163.50563072 -91.58496094 161.88500977 C-92.05192383 161.16498779 -92.51888672 160.44496582 -93 159.703125 C-93.4125 159.08083008 -93.825 158.45853516 -94.25 157.81738281 C-95.23752366 155.42443811 -94.91065312 154.39823636 -94 152 C-93.28247855 150.60752627 -92.51012761 149.24258512 -91.69921875 147.90234375 C-90.98511841 146.71560059 -90.98511841 146.71560059 -90.2565918 145.50488281 C-89.7387915 144.65764648 -89.22099121 143.81041016 -88.6875 142.9375 C-88.14843018 142.04772461 -87.60936035 141.15794922 -87.05395508 140.24121094 C-82.51613674 132.77957799 -77.86646672 125.39067843 -73.18359375 118.01953125 C-63.57216547 102.88747676 -54.1487842 87.63834556 -44.77050781 72.36108398 C-40.88941569 66.04649596 -36.97338141 59.75688711 -33 53.5 C-21.76980025 35.81118073 -10.92512644 17.87747962 0 0 Z " fill="#000000" transform="translate(389,0)"/>
<path d="M0 0 C4.62276577 4.14454862 7.47322448 8.77374995 10.5625 14.125 C11.62963614 15.93860414 12.69869312 17.75107923 13.76953125 19.5625 C14.30916504 20.47644531 14.84879883 21.39039063 15.40478516 22.33203125 C17.78240918 26.30856558 20.25885329 30.21891917 22.75 34.125 C28.22964988 42.73406002 33.58176135 51.41803925 38.89916992 60.12817383 C42.24750462 65.59578939 45.64232668 71.01967842 49.16796875 76.375 C49.82361816 77.37684326 50.47926758 78.37868652 51.15478516 79.41088867 C52.39829787 81.30225655 53.6539539 83.18571316 54.92333984 85.05981445 C55.47586426 85.9024585 56.02838867 86.74510254 56.59765625 87.61328125 C57.08758057 88.34329346 57.57750488 89.07330566 58.08227539 89.82543945 C59.28133227 92.66662052 58.92600786 94.09059312 58 97 C57.01611328 99.00463867 57.01611328 99.00463867 55.8203125 100.91796875 C55.38589844 101.61470703 54.95148438 102.31144531 54.50390625 103.02929688 C54.04886719 103.74150391 53.59382813 104.45371094 53.125 105.1875 C52.67769531 105.91130859 52.23039062 106.63511719 51.76953125 107.38085938 C49.65391647 110.73526333 48.36691842 112.75538772 45 115 C44.37508667 113.98353394 44.37508667 113.98353394 43.73754883 112.9465332 C27.17658577 86.00544711 27.17658577 86.00544711 10.46337891 59.15869141 C2.53411428 46.50404945 -5.26881404 33.77655539 -13 21 C-4.738041 6.21867882 -4.738041 6.21867882 0 0 Z " fill="#000000" transform="translate(281,175)"/>
</svg>
